solid automata
facet normal 0 0 -1
  outer loop
    vertex 0.00000 1.66667 0.00000
    vertex 1.66667 1.66667 0.00000
    vertex 1.66667 0.00000 0.00000
  end loop
  end facet
facet normal 0 0 -1
  outer loop
    vertex 1.66667 0.00000 0.00000
    vertex 0.00000 0.00000 0.00000
    vertex 0.00000 1.66667 0.00000
  end loop
  end facet
facet normal -1 0 0
  outer loop
    vertex 0.00000 0.00000 1.66667
    vertex 0.00000 1.66667 1.66667
    vertex 0.00000 1.66667 0.00000
  end loop
  end facet
facet normal -1 0 0
  outer loop
    vertex 0.00000 1.66667 0.00000
    vertex 0.00000 0.00000 0.00000
    vertex 0.00000 0.00000 1.66667
  end loop
  end facet
facet normal 1 0 0
  outer loop
    vertex 1.66667 0.00000 0.00000
    vertex 1.66667 1.66667 0.00000
    vertex 1.66667 1.66667 1.66667
  end loop
  end facet
facet normal 1 0 0
  outer loop
    vertex 1.66667 1.66667 1.66667
    vertex 1.66667 0.00000 1.66667
    vertex 1.66667 0.00000 0.00000
  end loop
  end facet
facet normal 0 -1 0
  outer loop
    vertex 0.00000 0.00000 0.00000
    vertex 1.66667 0.00000 0.00000
    vertex 1.66667 0.00000 1.66667
  end loop
  end facet
facet normal 0 -1 0
  outer loop
    vertex 1.66667 0.00000 1.66667
    vertex 0.00000 0.00000 1.66667
    vertex 0.00000 0.00000 0.00000
  end loop
  end facet
facet normal 0 0 -1
  outer loop
    vertex 0.00000 3.33333 0.00000
    vertex 1.66667 3.33333 0.00000
    vertex 1.66667 1.66667 0.00000
  end loop
  end facet
facet normal 0 0 -1
  outer loop
    vertex 1.66667 1.66667 0.00000
    vertex 0.00000 1.66667 0.00000
    vertex 0.00000 3.33333 0.00000
  end loop
  end facet
facet normal -1 0 0
  outer loop
    vertex 0.00000 1.66667 1.66667
    vertex 0.00000 3.33333 1.66667
    vertex 0.00000 3.33333 0.00000
  end loop
  end facet
facet normal -1 0 0
  outer loop
    vertex 0.00000 3.33333 0.00000
    vertex 0.00000 1.66667 0.00000
    vertex 0.00000 1.66667 1.66667
  end loop
  end facet
facet normal 1 0 0
  outer loop
    vertex 1.66667 1.66667 0.00000
    vertex 1.66667 3.33333 0.00000
    vertex 1.66667 3.33333 1.66667
  end loop
  end facet
facet normal 1 0 0
  outer loop
    vertex 1.66667 3.33333 1.66667
    vertex 1.66667 1.66667 1.66667
    vertex 1.66667 1.66667 0.00000
  end loop
  end facet
facet normal 0 0 -1
  outer loop
    vertex 0.00000 5.00000 0.00000
    vertex 1.66667 5.00000 0.00000
    vertex 1.66667 3.33333 0.00000
  end loop
  end facet
facet normal 0 0 -1
  outer loop
    vertex 1.66667 3.33333 0.00000
    vertex 0.00000 3.33333 0.00000
    vertex 0.00000 5.00000 0.00000
  end loop
  end facet
facet normal -1 0 0
  outer loop
    vertex 0.00000 3.33333 1.66667
    vertex 0.00000 5.00000 1.66667
    vertex 0.00000 5.00000 0.00000
  end loop
  end facet
facet normal -1 0 0
  outer loop
    vertex 0.00000 5.00000 0.00000
    vertex 0.00000 3.33333 0.00000
    vertex 0.00000 3.33333 1.66667
  end loop
  end facet
facet normal 1 0 0
  outer loop
    vertex 1.66667 3.33333 0.00000
    vertex 1.66667 5.00000 0.00000
    vertex 1.66667 5.00000 1.66667
  end loop
  end facet
facet normal 1 0 0
  outer loop
    vertex 1.66667 5.00000 1.66667
    vertex 1.66667 3.33333 1.66667
    vertex 1.66667 3.33333 0.00000
  end loop
  end facet
facet normal 0 0 -1
  outer loop
    vertex 0.00000 6.66667 0.00000
    vertex 1.66667 6.66667 0.00000
    vertex 1.66667 5.00000 0.00000
  end loop
  end facet
facet normal 0 0 -1
  outer loop
    vertex 1.66667 5.00000 0.00000
    vertex 0.00000 5.00000 0.00000
    vertex 0.00000 6.66667 0.00000
  end loop
  end facet
facet normal -1 0 0
  outer loop
    vertex 0.00000 5.00000 1.66667
    vertex 0.00000 6.66667 1.66667
    vertex 0.00000 6.66667 0.00000
  end loop
  end facet
facet normal -1 0 0
  outer loop
    vertex 0.00000 6.66667 0.00000
    vertex 0.00000 5.00000 0.00000
    vertex 0.00000 5.00000 1.66667
  end loop
  end facet
facet normal 1 0 0
  outer loop
    vertex 1.66667 5.00000 0.00000
    vertex 1.66667 6.66667 0.00000
    vertex 1.66667 6.66667 1.66667
  end loop
  end facet
facet normal 1 0 0
  outer loop
    vertex 1.66667 6.66667 1.66667
    vertex 1.66667 5.00000 1.66667
    vertex 1.66667 5.00000 0.00000
  end loop
  end facet
facet normal 0 0 -1
  outer loop
    vertex 0.00000 8.33333 0.00000
    vertex 1.66667 8.33333 0.00000
    vertex 1.66667 6.66667 0.00000
  end loop
  end facet
facet normal 0 0 -1
  outer loop
    vertex 1.66667 6.66667 0.00000
    vertex 0.00000 6.66667 0.00000
    vertex 0.00000 8.33333 0.00000
  end loop
  end facet
facet normal -1 0 0
  outer loop
    vertex 0.00000 6.66667 1.66667
    vertex 0.00000 8.33333 1.66667
    vertex 0.00000 8.33333 0.00000
  end loop
  end facet
facet normal -1 0 0
  outer loop
    vertex 0.00000 8.33333 0.00000
    vertex 0.00000 6.66667 0.00000
    vertex 0.00000 6.66667 1.66667
  end loop
  end facet
facet normal 1 0 0
  outer loop
    vertex 1.66667 6.66667 0.00000
    vertex 1.66667 8.33333 0.00000
    vertex 1.66667 8.33333 1.66667
  end loop
  end facet
facet normal 1 0 0
  outer loop
    vertex 1.66667 8.33333 1.66667
    vertex 1.66667 6.66667 1.66667
    vertex 1.66667 6.66667 0.00000
  end loop
  end facet
facet normal 0 0 -1
  outer loop
    vertex 0.00000 10.00000 0.00000
    vertex 1.66667 10.00000 0.00000
    vertex 1.66667 8.33333 0.00000
  end loop
  end facet
facet normal 0 0 -1
  outer loop
    vertex 1.66667 8.33333 0.00000
    vertex 0.00000 8.33333 0.00000
    vertex 0.00000 10.00000 0.00000
  end loop
  end facet
facet normal -1 0 0
  outer loop
    vertex 0.00000 8.33333 1.66667
    vertex 0.00000 10.00000 1.66667
    vertex 0.00000 10.00000 0.00000
  end loop
  end facet
facet normal -1 0 0
  outer loop
    vertex 0.00000 10.00000 0.00000
    vertex 0.00000 8.33333 0.00000
    vertex 0.00000 8.33333 1.66667
  end loop
  end facet
facet normal 1 0 0
  outer loop
    vertex 1.66667 8.33333 0.00000
    vertex 1.66667 10.00000 0.00000
    vertex 1.66667 10.00000 1.66667
  end loop
  end facet
facet normal 1 0 0
  outer loop
    vertex 1.66667 10.00000 1.66667
    vertex 1.66667 8.33333 1.66667
    vertex 1.66667 8.33333 0.00000
  end loop
  end facet
facet normal 0 1 0
  outer loop
    vertex 0.00000 10.00000 1.66667
    vertex 1.66667 10.00000 1.66667
    vertex 1.66667 10.00000 0.00000
  end loop
  end facet
facet normal 0 1 0
  outer loop
    vertex 1.66667 10.00000 0.00000
    vertex 0.00000 10.00000 0.00000
    vertex 0.00000 10.00000 1.66667
  end loop
  end facet
facet normal -1 0 0
  outer loop
    vertex 0.00000 0.00000 3.33333
    vertex 0.00000 1.66667 3.33333
    vertex 0.00000 1.66667 1.66667
  end loop
  end facet
facet normal -1 0 0
  outer loop
    vertex 0.00000 1.66667 1.66667
    vertex 0.00000 0.00000 1.66667
    vertex 0.00000 0.00000 3.33333
  end loop
  end facet
facet normal 1 0 0
  outer loop
    vertex 1.66667 0.00000 1.66667
    vertex 1.66667 1.66667 1.66667
    vertex 1.66667 1.66667 3.33333
  end loop
  end facet
facet normal 1 0 0
  outer loop
    vertex 1.66667 1.66667 3.33333
    vertex 1.66667 0.00000 3.33333
    vertex 1.66667 0.00000 1.66667
  end loop
  end facet
facet normal 0 -1 0
  outer loop
    vertex 0.00000 0.00000 1.66667
    vertex 1.66667 0.00000 1.66667
    vertex 1.66667 0.00000 3.33333
  end loop
  end facet
facet normal 0 -1 0
  outer loop
    vertex 1.66667 0.00000 3.33333
    vertex 0.00000 0.00000 3.33333
    vertex 0.00000 0.00000 1.66667
  end loop
  end facet
facet normal -1 0 0
  outer loop
    vertex 0.00000 1.66667 3.33333
    vertex 0.00000 3.33333 3.33333
    vertex 0.00000 3.33333 1.66667
  end loop
  end facet
facet normal -1 0 0
  outer loop
    vertex 0.00000 3.33333 1.66667
    vertex 0.00000 1.66667 1.66667
    vertex 0.00000 1.66667 3.33333
  end loop
  end facet
facet normal 1 0 0
  outer loop
    vertex 1.66667 1.66667 1.66667
    vertex 1.66667 3.33333 1.66667
    vertex 1.66667 3.33333 3.33333
  end loop
  end facet
facet normal 1 0 0
  outer loop
    vertex 1.66667 3.33333 3.33333
    vertex 1.66667 1.66667 3.33333
    vertex 1.66667 1.66667 1.66667
  end loop
  end facet
facet normal -1 0 0
  outer loop
    vertex 0.00000 3.33333 3.33333
    vertex 0.00000 5.00000 3.33333
    vertex 0.00000 5.00000 1.66667
  end loop
  end facet
facet normal -1 0 0
  outer loop
    vertex 0.00000 5.00000 1.66667
    vertex 0.00000 3.33333 1.66667
    vertex 0.00000 3.33333 3.33333
  end loop
  end facet
facet normal 1 0 0
  outer loop
    vertex 1.66667 3.33333 1.66667
    vertex 1.66667 5.00000 1.66667
    vertex 1.66667 5.00000 3.33333
  end loop
  end facet
facet normal 1 0 0
  outer loop
    vertex 1.66667 5.00000 3.33333
    vertex 1.66667 3.33333 3.33333
    vertex 1.66667 3.33333 1.66667
  end loop
  end facet
facet normal 0 0 1
  outer loop
    vertex 0.00000 5.00000 3.33333
    vertex 1.66667 5.00000 3.33333
    vertex 1.66667 6.66667 3.33333
  end loop
  end facet
facet normal 0 0 1
  outer loop
    vertex 1.66667 6.66667 3.33333
    vertex 0.00000 6.66667 3.33333
    vertex 0.00000 5.00000 3.33333
  end loop
  end facet
facet normal -1 0 0
  outer loop
    vertex 0.00000 5.00000 3.33333
    vertex 0.00000 6.66667 3.33333
    vertex 0.00000 6.66667 1.66667
  end loop
  end facet
facet normal -1 0 0
  outer loop
    vertex 0.00000 6.66667 1.66667
    vertex 0.00000 5.00000 1.66667
    vertex 0.00000 5.00000 3.33333
  end loop
  end facet
facet normal -1 0 0
  outer loop
    vertex 0.00000 6.66667 3.33333
    vertex 0.00000 8.33333 3.33333
    vertex 0.00000 8.33333 1.66667
  end loop
  end facet
facet normal -1 0 0
  outer loop
    vertex 0.00000 8.33333 1.66667
    vertex 0.00000 6.66667 1.66667
    vertex 0.00000 6.66667 3.33333
  end loop
  end facet
facet normal 1 0 0
  outer loop
    vertex 1.66667 6.66667 1.66667
    vertex 1.66667 8.33333 1.66667
    vertex 1.66667 8.33333 3.33333
  end loop
  end facet
facet normal 1 0 0
  outer loop
    vertex 1.66667 8.33333 3.33333
    vertex 1.66667 6.66667 3.33333
    vertex 1.66667 6.66667 1.66667
  end loop
  end facet
facet normal -1 0 0
  outer loop
    vertex 0.00000 8.33333 3.33333
    vertex 0.00000 10.00000 3.33333
    vertex 0.00000 10.00000 1.66667
  end loop
  end facet
facet normal -1 0 0
  outer loop
    vertex 0.00000 10.00000 1.66667
    vertex 0.00000 8.33333 1.66667
    vertex 0.00000 8.33333 3.33333
  end loop
  end facet
facet normal 1 0 0
  outer loop
    vertex 1.66667 8.33333 1.66667
    vertex 1.66667 10.00000 1.66667
    vertex 1.66667 10.00000 3.33333
  end loop
  end facet
facet normal 1 0 0
  outer loop
    vertex 1.66667 10.00000 3.33333
    vertex 1.66667 8.33333 3.33333
    vertex 1.66667 8.33333 1.66667
  end loop
  end facet
facet normal 0 1 0
  outer loop
    vertex 0.00000 10.00000 3.33333
    vertex 1.66667 10.00000 3.33333
    vertex 1.66667 10.00000 1.66667
  end loop
  end facet
facet normal 0 1 0
  outer loop
    vertex 1.66667 10.00000 1.66667
    vertex 0.00000 10.00000 1.66667
    vertex 0.00000 10.00000 3.33333
  end loop
  end facet
facet normal 0 0 -1
  outer loop
    vertex 1.66667 6.66667 1.66667
    vertex 3.33333 6.66667 1.66667
    vertex 3.33333 5.00000 1.66667
  end loop
  end facet
facet normal 0 0 -1
  outer loop
    vertex 3.33333 5.00000 1.66667
    vertex 1.66667 5.00000 1.66667
    vertex 1.66667 6.66667 1.66667
  end loop
  end facet
facet normal 0 0 1
  outer loop
    vertex 1.66667 5.00000 3.33333
    vertex 3.33333 5.00000 3.33333
    vertex 3.33333 6.66667 3.33333
  end loop
  end facet
facet normal 0 0 1
  outer loop
    vertex 3.33333 6.66667 3.33333
    vertex 1.66667 6.66667 3.33333
    vertex 1.66667 5.00000 3.33333
  end loop
  end facet
facet normal 1 0 0
  outer loop
    vertex 3.33333 5.00000 1.66667
    vertex 3.33333 6.66667 1.66667
    vertex 3.33333 6.66667 3.33333
  end loop
  end facet
facet normal 1 0 0
  outer loop
    vertex 3.33333 6.66667 3.33333
    vertex 3.33333 5.00000 3.33333
    vertex 3.33333 5.00000 1.66667
  end loop
  end facet
facet normal 0 -1 0
  outer loop
    vertex 1.66667 5.00000 1.66667
    vertex 3.33333 5.00000 1.66667
    vertex 3.33333 5.00000 3.33333
  end loop
  end facet
facet normal 0 -1 0
  outer loop
    vertex 3.33333 5.00000 3.33333
    vertex 1.66667 5.00000 3.33333
    vertex 1.66667 5.00000 1.66667
  end loop
  end facet
facet normal 0 1 0
  outer loop
    vertex 1.66667 6.66667 3.33333
    vertex 3.33333 6.66667 3.33333
    vertex 3.33333 6.66667 1.66667
  end loop
  end facet
facet normal 0 1 0
  outer loop
    vertex 3.33333 6.66667 1.66667
    vertex 1.66667 6.66667 1.66667
    vertex 1.66667 6.66667 3.33333
  end loop
  end facet
facet normal -1 0 0
  outer loop
    vertex 0.00000 0.00000 5.00000
    vertex 0.00000 1.66667 5.00000
    vertex 0.00000 1.66667 3.33333
  end loop
  end facet
facet normal -1 0 0
  outer loop
    vertex 0.00000 1.66667 3.33333
    vertex 0.00000 0.00000 3.33333
    vertex 0.00000 0.00000 5.00000
  end loop
  end facet
facet normal 1 0 0
  outer loop
    vertex 1.66667 0.00000 3.33333
    vertex 1.66667 1.66667 3.33333
    vertex 1.66667 1.66667 5.00000
  end loop
  end facet
facet normal 1 0 0
  outer loop
    vertex 1.66667 1.66667 5.00000
    vertex 1.66667 0.00000 5.00000
    vertex 1.66667 0.00000 3.33333
  end loop
  end facet
facet normal 0 -1 0
  outer loop
    vertex 0.00000 0.00000 3.33333
    vertex 1.66667 0.00000 3.33333
    vertex 1.66667 0.00000 5.00000
  end loop
  end facet
facet normal 0 -1 0
  outer loop
    vertex 1.66667 0.00000 5.00000
    vertex 0.00000 0.00000 5.00000
    vertex 0.00000 0.00000 3.33333
  end loop
  end facet
facet normal -1 0 0
  outer loop
    vertex 0.00000 1.66667 5.00000
    vertex 0.00000 3.33333 5.00000
    vertex 0.00000 3.33333 3.33333
  end loop
  end facet
facet normal -1 0 0
  outer loop
    vertex 0.00000 3.33333 3.33333
    vertex 0.00000 1.66667 3.33333
    vertex 0.00000 1.66667 5.00000
  end loop
  end facet
facet normal 1 0 0
  outer loop
    vertex 1.66667 1.66667 3.33333
    vertex 1.66667 3.33333 3.33333
    vertex 1.66667 3.33333 5.00000
  end loop
  end facet
facet normal 1 0 0
  outer loop
    vertex 1.66667 3.33333 5.00000
    vertex 1.66667 1.66667 5.00000
    vertex 1.66667 1.66667 3.33333
  end loop
  end facet
facet normal 0 0 1
  outer loop
    vertex 0.00000 3.33333 5.00000
    vertex 1.66667 3.33333 5.00000
    vertex 1.66667 5.00000 5.00000
  end loop
  end facet
facet normal 0 0 1
  outer loop
    vertex 1.66667 5.00000 5.00000
    vertex 0.00000 5.00000 5.00000
    vertex 0.00000 3.33333 5.00000
  end loop
  end facet
facet normal -1 0 0
  outer loop
    vertex 0.00000 3.33333 5.00000
    vertex 0.00000 5.00000 5.00000
    vertex 0.00000 5.00000 3.33333
  end loop
  end facet
facet normal -1 0 0
  outer loop
    vertex 0.00000 5.00000 3.33333
    vertex 0.00000 3.33333 3.33333
    vertex 0.00000 3.33333 5.00000
  end loop
  end facet
facet normal 1 0 0
  outer loop
    vertex 1.66667 3.33333 3.33333
    vertex 1.66667 5.00000 3.33333
    vertex 1.66667 5.00000 5.00000
  end loop
  end facet
facet normal 1 0 0
  outer loop
    vertex 1.66667 5.00000 5.00000
    vertex 1.66667 3.33333 5.00000
    vertex 1.66667 3.33333 3.33333
  end loop
  end facet
facet normal 0 1 0
  outer loop
    vertex 0.00000 5.00000 5.00000
    vertex 1.66667 5.00000 5.00000
    vertex 1.66667 5.00000 3.33333
  end loop
  end facet
facet normal 0 1 0
  outer loop
    vertex 1.66667 5.00000 3.33333
    vertex 0.00000 5.00000 3.33333
    vertex 0.00000 5.00000 5.00000
  end loop
  end facet
facet normal -1 0 0
  outer loop
    vertex 0.00000 6.66667 5.00000
    vertex 0.00000 8.33333 5.00000
    vertex 0.00000 8.33333 3.33333
  end loop
  end facet
facet normal -1 0 0
  outer loop
    vertex 0.00000 8.33333 3.33333
    vertex 0.00000 6.66667 3.33333
    vertex 0.00000 6.66667 5.00000
  end loop
  end facet
facet normal 1 0 0
  outer loop
    vertex 1.66667 6.66667 3.33333
    vertex 1.66667 8.33333 3.33333
    vertex 1.66667 8.33333 5.00000
  end loop
  end facet
facet normal 1 0 0
  outer loop
    vertex 1.66667 8.33333 5.00000
    vertex 1.66667 6.66667 5.00000
    vertex 1.66667 6.66667 3.33333
  end loop
  end facet
facet normal 0 -1 0
  outer loop
    vertex 0.00000 6.66667 3.33333
    vertex 1.66667 6.66667 3.33333
    vertex 1.66667 6.66667 5.00000
  end loop
  end facet
facet normal 0 -1 0
  outer loop
    vertex 1.66667 6.66667 5.00000
    vertex 0.00000 6.66667 5.00000
    vertex 0.00000 6.66667 3.33333
  end loop
  end facet
facet normal -1 0 0
  outer loop
    vertex 0.00000 8.33333 5.00000
    vertex 0.00000 10.00000 5.00000
    vertex 0.00000 10.00000 3.33333
  end loop
  end facet
facet normal -1 0 0
  outer loop
    vertex 0.00000 10.00000 3.33333
    vertex 0.00000 8.33333 3.33333
    vertex 0.00000 8.33333 5.00000
  end loop
  end facet
facet normal 1 0 0
  outer loop
    vertex 1.66667 8.33333 3.33333
    vertex 1.66667 10.00000 3.33333
    vertex 1.66667 10.00000 5.00000
  end loop
  end facet
facet normal 1 0 0
  outer loop
    vertex 1.66667 10.00000 5.00000
    vertex 1.66667 8.33333 5.00000
    vertex 1.66667 8.33333 3.33333
  end loop
  end facet
facet normal 0 1 0
  outer loop
    vertex 0.00000 10.00000 5.00000
    vertex 1.66667 10.00000 5.00000
    vertex 1.66667 10.00000 3.33333
  end loop
  end facet
facet normal 0 1 0
  outer loop
    vertex 1.66667 10.00000 3.33333
    vertex 0.00000 10.00000 3.33333
    vertex 0.00000 10.00000 5.00000
  end loop
  end facet
facet normal -1 0 0
  outer loop
    vertex 0.00000 0.00000 6.66667
    vertex 0.00000 1.66667 6.66667
    vertex 0.00000 1.66667 5.00000
  end loop
  end facet
facet normal -1 0 0
  outer loop
    vertex 0.00000 1.66667 5.00000
    vertex 0.00000 0.00000 5.00000
    vertex 0.00000 0.00000 6.66667
  end loop
  end facet
facet normal 1 0 0
  outer loop
    vertex 1.66667 0.00000 5.00000
    vertex 1.66667 1.66667 5.00000
    vertex 1.66667 1.66667 6.66667
  end loop
  end facet
facet normal 1 0 0
  outer loop
    vertex 1.66667 1.66667 6.66667
    vertex 1.66667 0.00000 6.66667
    vertex 1.66667 0.00000 5.00000
  end loop
  end facet
facet normal 0 -1 0
  outer loop
    vertex 0.00000 0.00000 5.00000
    vertex 1.66667 0.00000 5.00000
    vertex 1.66667 0.00000 6.66667
  end loop
  end facet
facet normal 0 -1 0
  outer loop
    vertex 1.66667 0.00000 6.66667
    vertex 0.00000 0.00000 6.66667
    vertex 0.00000 0.00000 5.00000
  end loop
  end facet
facet normal -1 0 0
  outer loop
    vertex 0.00000 1.66667 6.66667
    vertex 0.00000 3.33333 6.66667
    vertex 0.00000 3.33333 5.00000
  end loop
  end facet
facet normal -1 0 0
  outer loop
    vertex 0.00000 3.33333 5.00000
    vertex 0.00000 1.66667 5.00000
    vertex 0.00000 1.66667 6.66667
  end loop
  end facet
facet normal 1 0 0
  outer loop
    vertex 1.66667 1.66667 5.00000
    vertex 1.66667 3.33333 5.00000
    vertex 1.66667 3.33333 6.66667
  end loop
  end facet
facet normal 1 0 0
  outer loop
    vertex 1.66667 3.33333 6.66667
    vertex 1.66667 1.66667 6.66667
    vertex 1.66667 1.66667 5.00000
  end loop
  end facet
facet normal 0 1 0
  outer loop
    vertex 0.00000 3.33333 6.66667
    vertex 1.66667 3.33333 6.66667
    vertex 1.66667 3.33333 5.00000
  end loop
  end facet
facet normal 0 1 0
  outer loop
    vertex 1.66667 3.33333 5.00000
    vertex 0.00000 3.33333 5.00000
    vertex 0.00000 3.33333 6.66667
  end loop
  end facet
facet normal -1 0 0
  outer loop
    vertex 0.00000 6.66667 6.66667
    vertex 0.00000 8.33333 6.66667
    vertex 0.00000 8.33333 5.00000
  end loop
  end facet
facet normal -1 0 0
  outer loop
    vertex 0.00000 8.33333 5.00000
    vertex 0.00000 6.66667 5.00000
    vertex 0.00000 6.66667 6.66667
  end loop
  end facet
facet normal 1 0 0
  outer loop
    vertex 1.66667 6.66667 5.00000
    vertex 1.66667 8.33333 5.00000
    vertex 1.66667 8.33333 6.66667
  end loop
  end facet
facet normal 1 0 0
  outer loop
    vertex 1.66667 8.33333 6.66667
    vertex 1.66667 6.66667 6.66667
    vertex 1.66667 6.66667 5.00000
  end loop
  end facet
facet normal 0 -1 0
  outer loop
    vertex 0.00000 6.66667 5.00000
    vertex 1.66667 6.66667 5.00000
    vertex 1.66667 6.66667 6.66667
  end loop
  end facet
facet normal 0 -1 0
  outer loop
    vertex 1.66667 6.66667 6.66667
    vertex 0.00000 6.66667 6.66667
    vertex 0.00000 6.66667 5.00000
  end loop
  end facet
facet normal -1 0 0
  outer loop
    vertex 0.00000 8.33333 6.66667
    vertex 0.00000 10.00000 6.66667
    vertex 0.00000 10.00000 5.00000
  end loop
  end facet
facet normal -1 0 0
  outer loop
    vertex 0.00000 10.00000 5.00000
    vertex 0.00000 8.33333 5.00000
    vertex 0.00000 8.33333 6.66667
  end loop
  end facet
facet normal 1 0 0
  outer loop
    vertex 1.66667 8.33333 5.00000
    vertex 1.66667 10.00000 5.00000
    vertex 1.66667 10.00000 6.66667
  end loop
  end facet
facet normal 1 0 0
  outer loop
    vertex 1.66667 10.00000 6.66667
    vertex 1.66667 8.33333 6.66667
    vertex 1.66667 8.33333 5.00000
  end loop
  end facet
facet normal 0 1 0
  outer loop
    vertex 0.00000 10.00000 6.66667
    vertex 1.66667 10.00000 6.66667
    vertex 1.66667 10.00000 5.00000
  end loop
  end facet
facet normal 0 1 0
  outer loop
    vertex 1.66667 10.00000 5.00000
    vertex 0.00000 10.00000 5.00000
    vertex 0.00000 10.00000 6.66667
  end loop
  end facet
facet normal -1 0 0
  outer loop
    vertex 0.00000 0.00000 8.33333
    vertex 0.00000 1.66667 8.33333
    vertex 0.00000 1.66667 6.66667
  end loop
  end facet
facet normal -1 0 0
  outer loop
    vertex 0.00000 1.66667 6.66667
    vertex 0.00000 0.00000 6.66667
    vertex 0.00000 0.00000 8.33333
  end loop
  end facet
facet normal 1 0 0
  outer loop
    vertex 1.66667 0.00000 6.66667
    vertex 1.66667 1.66667 6.66667
    vertex 1.66667 1.66667 8.33333
  end loop
  end facet
facet normal 1 0 0
  outer loop
    vertex 1.66667 1.66667 8.33333
    vertex 1.66667 0.00000 8.33333
    vertex 1.66667 0.00000 6.66667
  end loop
  end facet
facet normal 0 -1 0
  outer loop
    vertex 0.00000 0.00000 6.66667
    vertex 1.66667 0.00000 6.66667
    vertex 1.66667 0.00000 8.33333
  end loop
  end facet
facet normal 0 -1 0
  outer loop
    vertex 1.66667 0.00000 8.33333
    vertex 0.00000 0.00000 8.33333
    vertex 0.00000 0.00000 6.66667
  end loop
  end facet
facet normal -1 0 0
  outer loop
    vertex 0.00000 1.66667 8.33333
    vertex 0.00000 3.33333 8.33333
    vertex 0.00000 3.33333 6.66667
  end loop
  end facet
facet normal -1 0 0
  outer loop
    vertex 0.00000 3.33333 6.66667
    vertex 0.00000 1.66667 6.66667
    vertex 0.00000 1.66667 8.33333
  end loop
  end facet
facet normal 1 0 0
  outer loop
    vertex 1.66667 1.66667 6.66667
    vertex 1.66667 3.33333 6.66667
    vertex 1.66667 3.33333 8.33333
  end loop
  end facet
facet normal 1 0 0
  outer loop
    vertex 1.66667 3.33333 8.33333
    vertex 1.66667 1.66667 8.33333
    vertex 1.66667 1.66667 6.66667
  end loop
  end facet
facet normal 0 0 -1
  outer loop
    vertex 0.00000 5.00000 6.66667
    vertex 1.66667 5.00000 6.66667
    vertex 1.66667 3.33333 6.66667
  end loop
  end facet
facet normal 0 0 -1
  outer loop
    vertex 1.66667 3.33333 6.66667
    vertex 0.00000 3.33333 6.66667
    vertex 0.00000 5.00000 6.66667
  end loop
  end facet
facet normal -1 0 0
  outer loop
    vertex 0.00000 3.33333 8.33333
    vertex 0.00000 5.00000 8.33333
    vertex 0.00000 5.00000 6.66667
  end loop
  end facet
facet normal -1 0 0
  outer loop
    vertex 0.00000 5.00000 6.66667
    vertex 0.00000 3.33333 6.66667
    vertex 0.00000 3.33333 8.33333
  end loop
  end facet
facet normal 1 0 0
  outer loop
    vertex 1.66667 3.33333 6.66667
    vertex 1.66667 5.00000 6.66667
    vertex 1.66667 5.00000 8.33333
  end loop
  end facet
facet normal 1 0 0
  outer loop
    vertex 1.66667 5.00000 8.33333
    vertex 1.66667 3.33333 8.33333
    vertex 1.66667 3.33333 6.66667
  end loop
  end facet
facet normal 0 1 0
  outer loop
    vertex 0.00000 5.00000 8.33333
    vertex 1.66667 5.00000 8.33333
    vertex 1.66667 5.00000 6.66667
  end loop
  end facet
facet normal 0 1 0
  outer loop
    vertex 1.66667 5.00000 6.66667
    vertex 0.00000 5.00000 6.66667
    vertex 0.00000 5.00000 8.33333
  end loop
  end facet
facet normal -1 0 0
  outer loop
    vertex 0.00000 6.66667 8.33333
    vertex 0.00000 8.33333 8.33333
    vertex 0.00000 8.33333 6.66667
  end loop
  end facet
facet normal -1 0 0
  outer loop
    vertex 0.00000 8.33333 6.66667
    vertex 0.00000 6.66667 6.66667
    vertex 0.00000 6.66667 8.33333
  end loop
  end facet
facet normal 1 0 0
  outer loop
    vertex 1.66667 6.66667 6.66667
    vertex 1.66667 8.33333 6.66667
    vertex 1.66667 8.33333 8.33333
  end loop
  end facet
facet normal 1 0 0
  outer loop
    vertex 1.66667 8.33333 8.33333
    vertex 1.66667 6.66667 8.33333
    vertex 1.66667 6.66667 6.66667
  end loop
  end facet
facet normal 0 -1 0
  outer loop
    vertex 0.00000 6.66667 6.66667
    vertex 1.66667 6.66667 6.66667
    vertex 1.66667 6.66667 8.33333
  end loop
  end facet
facet normal 0 -1 0
  outer loop
    vertex 1.66667 6.66667 8.33333
    vertex 0.00000 6.66667 8.33333
    vertex 0.00000 6.66667 6.66667
  end loop
  end facet
facet normal -1 0 0
  outer loop
    vertex 0.00000 8.33333 8.33333
    vertex 0.00000 10.00000 8.33333
    vertex 0.00000 10.00000 6.66667
  end loop
  end facet
facet normal -1 0 0
  outer loop
    vertex 0.00000 10.00000 6.66667
    vertex 0.00000 8.33333 6.66667
    vertex 0.00000 8.33333 8.33333
  end loop
  end facet
facet normal 1 0 0
  outer loop
    vertex 1.66667 8.33333 6.66667
    vertex 1.66667 10.00000 6.66667
    vertex 1.66667 10.00000 8.33333
  end loop
  end facet
facet normal 1 0 0
  outer loop
    vertex 1.66667 10.00000 8.33333
    vertex 1.66667 8.33333 8.33333
    vertex 1.66667 8.33333 6.66667
  end loop
  end facet
facet normal 0 1 0
  outer loop
    vertex 0.00000 10.00000 8.33333
    vertex 1.66667 10.00000 8.33333
    vertex 1.66667 10.00000 6.66667
  end loop
  end facet
facet normal 0 1 0
  outer loop
    vertex 1.66667 10.00000 6.66667
    vertex 0.00000 10.00000 6.66667
    vertex 0.00000 10.00000 8.33333
  end loop
  end facet
facet normal 0 0 1
  outer loop
    vertex 0.00000 0.00000 10.00000
    vertex 1.66667 0.00000 10.00000
    vertex 1.66667 1.66667 10.00000
  end loop
  end facet
facet normal 0 0 1
  outer loop
    vertex 1.66667 1.66667 10.00000
    vertex 0.00000 1.66667 10.00000
    vertex 0.00000 0.00000 10.00000
  end loop
  end facet
facet normal -1 0 0
  outer loop
    vertex 0.00000 0.00000 10.00000
    vertex 0.00000 1.66667 10.00000
    vertex 0.00000 1.66667 8.33333
  end loop
  end facet
facet normal -1 0 0
  outer loop
    vertex 0.00000 1.66667 8.33333
    vertex 0.00000 0.00000 8.33333
    vertex 0.00000 0.00000 10.00000
  end loop
  end facet
facet normal 0 -1 0
  outer loop
    vertex 0.00000 0.00000 8.33333
    vertex 1.66667 0.00000 8.33333
    vertex 1.66667 0.00000 10.00000
  end loop
  end facet
facet normal 0 -1 0
  outer loop
    vertex 1.66667 0.00000 10.00000
    vertex 0.00000 0.00000 10.00000
    vertex 0.00000 0.00000 8.33333
  end loop
  end facet
facet normal 0 0 1
  outer loop
    vertex 0.00000 1.66667 10.00000
    vertex 1.66667 1.66667 10.00000
    vertex 1.66667 3.33333 10.00000
  end loop
  end facet
facet normal 0 0 1
  outer loop
    vertex 1.66667 3.33333 10.00000
    vertex 0.00000 3.33333 10.00000
    vertex 0.00000 1.66667 10.00000
  end loop
  end facet
facet normal -1 0 0
  outer loop
    vertex 0.00000 1.66667 10.00000
    vertex 0.00000 3.33333 10.00000
    vertex 0.00000 3.33333 8.33333
  end loop
  end facet
facet normal -1 0 0
  outer loop
    vertex 0.00000 3.33333 8.33333
    vertex 0.00000 1.66667 8.33333
    vertex 0.00000 1.66667 10.00000
  end loop
  end facet
facet normal 0 0 1
  outer loop
    vertex 0.00000 3.33333 10.00000
    vertex 1.66667 3.33333 10.00000
    vertex 1.66667 5.00000 10.00000
  end loop
  end facet
facet normal 0 0 1
  outer loop
    vertex 1.66667 5.00000 10.00000
    vertex 0.00000 5.00000 10.00000
    vertex 0.00000 3.33333 10.00000
  end loop
  end facet
facet normal -1 0 0
  outer loop
    vertex 0.00000 3.33333 10.00000
    vertex 0.00000 5.00000 10.00000
    vertex 0.00000 5.00000 8.33333
  end loop
  end facet
facet normal -1 0 0
  outer loop
    vertex 0.00000 5.00000 8.33333
    vertex 0.00000 3.33333 8.33333
    vertex 0.00000 3.33333 10.00000
  end loop
  end facet
facet normal 0 0 -1
  outer loop
    vertex 0.00000 6.66667 8.33333
    vertex 1.66667 6.66667 8.33333
    vertex 1.66667 5.00000 8.33333
  end loop
  end facet
facet normal 0 0 -1
  outer loop
    vertex 1.66667 5.00000 8.33333
    vertex 0.00000 5.00000 8.33333
    vertex 0.00000 6.66667 8.33333
  end loop
  end facet
facet normal 0 0 1
  outer loop
    vertex 0.00000 5.00000 10.00000
    vertex 1.66667 5.00000 10.00000
    vertex 1.66667 6.66667 10.00000
  end loop
  end facet
facet normal 0 0 1
  outer loop
    vertex 1.66667 6.66667 10.00000
    vertex 0.00000 6.66667 10.00000
    vertex 0.00000 5.00000 10.00000
  end loop
  end facet
facet normal -1 0 0
  outer loop
    vertex 0.00000 5.00000 10.00000
    vertex 0.00000 6.66667 10.00000
    vertex 0.00000 6.66667 8.33333
  end loop
  end facet
facet normal -1 0 0
  outer loop
    vertex 0.00000 6.66667 8.33333
    vertex 0.00000 5.00000 8.33333
    vertex 0.00000 5.00000 10.00000
  end loop
  end facet
facet normal 0 0 1
  outer loop
    vertex 0.00000 6.66667 10.00000
    vertex 1.66667 6.66667 10.00000
    vertex 1.66667 8.33333 10.00000
  end loop
  end facet
facet normal 0 0 1
  outer loop
    vertex 1.66667 8.33333 10.00000
    vertex 0.00000 8.33333 10.00000
    vertex 0.00000 6.66667 10.00000
  end loop
  end facet
facet normal -1 0 0
  outer loop
    vertex 0.00000 6.66667 10.00000
    vertex 0.00000 8.33333 10.00000
    vertex 0.00000 8.33333 8.33333
  end loop
  end facet
facet normal -1 0 0
  outer loop
    vertex 0.00000 8.33333 8.33333
    vertex 0.00000 6.66667 8.33333
    vertex 0.00000 6.66667 10.00000
  end loop
  end facet
facet normal 0 0 1
  outer loop
    vertex 0.00000 8.33333 10.00000
    vertex 1.66667 8.33333 10.00000
    vertex 1.66667 10.00000 10.00000
  end loop
  end facet
facet normal 0 0 1
  outer loop
    vertex 1.66667 10.00000 10.00000
    vertex 0.00000 10.00000 10.00000
    vertex 0.00000 8.33333 10.00000
  end loop
  end facet
facet normal -1 0 0
  outer loop
    vertex 0.00000 8.33333 10.00000
    vertex 0.00000 10.00000 10.00000
    vertex 0.00000 10.00000 8.33333
  end loop
  end facet
facet normal -1 0 0
  outer loop
    vertex 0.00000 10.00000 8.33333
    vertex 0.00000 8.33333 8.33333
    vertex 0.00000 8.33333 10.00000
  end loop
  end facet
facet normal 0 1 0
  outer loop
    vertex 0.00000 10.00000 10.00000
    vertex 1.66667 10.00000 10.00000
    vertex 1.66667 10.00000 8.33333
  end loop
  end facet
facet normal 0 1 0
  outer loop
    vertex 1.66667 10.00000 8.33333
    vertex 0.00000 10.00000 8.33333
    vertex 0.00000 10.00000 10.00000
  end loop
  end facet
facet normal 0 0 -1
  outer loop
    vertex 1.66667 1.66667 8.33333
    vertex 3.33333 1.66667 8.33333
    vertex 3.33333 0.00000 8.33333
  end loop
  end facet
facet normal 0 0 -1
  outer loop
    vertex 3.33333 0.00000 8.33333
    vertex 1.66667 0.00000 8.33333
    vertex 1.66667 1.66667 8.33333
  end loop
  end facet
facet normal 0 0 1
  outer loop
    vertex 1.66667 0.00000 10.00000
    vertex 3.33333 0.00000 10.00000
    vertex 3.33333 1.66667 10.00000
  end loop
  end facet
facet normal 0 0 1
  outer loop
    vertex 3.33333 1.66667 10.00000
    vertex 1.66667 1.66667 10.00000
    vertex 1.66667 0.00000 10.00000
  end loop
  end facet
facet normal 0 -1 0
  outer loop
    vertex 1.66667 0.00000 8.33333
    vertex 3.33333 0.00000 8.33333
    vertex 3.33333 0.00000 10.00000
  end loop
  end facet
facet normal 0 -1 0
  outer loop
    vertex 3.33333 0.00000 10.00000
    vertex 1.66667 0.00000 10.00000
    vertex 1.66667 0.00000 8.33333
  end loop
  end facet
facet normal 0 0 -1
  outer loop
    vertex 1.66667 3.33333 8.33333
    vertex 3.33333 3.33333 8.33333
    vertex 3.33333 1.66667 8.33333
  end loop
  end facet
facet normal 0 0 -1
  outer loop
    vertex 3.33333 1.66667 8.33333
    vertex 1.66667 1.66667 8.33333
    vertex 1.66667 3.33333 8.33333
  end loop
  end facet
facet normal 0 0 1
  outer loop
    vertex 1.66667 1.66667 10.00000
    vertex 3.33333 1.66667 10.00000
    vertex 3.33333 3.33333 10.00000
  end loop
  end facet
facet normal 0 0 1
  outer loop
    vertex 3.33333 3.33333 10.00000
    vertex 1.66667 3.33333 10.00000
    vertex 1.66667 1.66667 10.00000
  end loop
  end facet
facet normal 0 0 -1
  outer loop
    vertex 1.66667 5.00000 8.33333
    vertex 3.33333 5.00000 8.33333
    vertex 3.33333 3.33333 8.33333
  end loop
  end facet
facet normal 0 0 -1
  outer loop
    vertex 3.33333 3.33333 8.33333
    vertex 1.66667 3.33333 8.33333
    vertex 1.66667 5.00000 8.33333
  end loop
  end facet
facet normal 0 0 1
  outer loop
    vertex 1.66667 3.33333 10.00000
    vertex 3.33333 3.33333 10.00000
    vertex 3.33333 5.00000 10.00000
  end loop
  end facet
facet normal 0 0 1
  outer loop
    vertex 3.33333 5.00000 10.00000
    vertex 1.66667 5.00000 10.00000
    vertex 1.66667 3.33333 10.00000
  end loop
  end facet
facet normal 0 0 -1
  outer loop
    vertex 1.66667 6.66667 8.33333
    vertex 3.33333 6.66667 8.33333
    vertex 3.33333 5.00000 8.33333
  end loop
  end facet
facet normal 0 0 -1
  outer loop
    vertex 3.33333 5.00000 8.33333
    vertex 1.66667 5.00000 8.33333
    vertex 1.66667 6.66667 8.33333
  end loop
  end facet
facet normal 0 0 1
  outer loop
    vertex 1.66667 5.00000 10.00000
    vertex 3.33333 5.00000 10.00000
    vertex 3.33333 6.66667 10.00000
  end loop
  end facet
facet normal 0 0 1
  outer loop
    vertex 3.33333 6.66667 10.00000
    vertex 1.66667 6.66667 10.00000
    vertex 1.66667 5.00000 10.00000
  end loop
  end facet
facet normal 0 0 -1
  outer loop
    vertex 1.66667 8.33333 8.33333
    vertex 3.33333 8.33333 8.33333
    vertex 3.33333 6.66667 8.33333
  end loop
  end facet
facet normal 0 0 -1
  outer loop
    vertex 3.33333 6.66667 8.33333
    vertex 1.66667 6.66667 8.33333
    vertex 1.66667 8.33333 8.33333
  end loop
  end facet
facet normal 0 0 1
  outer loop
    vertex 1.66667 6.66667 10.00000
    vertex 3.33333 6.66667 10.00000
    vertex 3.33333 8.33333 10.00000
  end loop
  end facet
facet normal 0 0 1
  outer loop
    vertex 3.33333 8.33333 10.00000
    vertex 1.66667 8.33333 10.00000
    vertex 1.66667 6.66667 10.00000
  end loop
  end facet
facet normal 0 0 -1
  outer loop
    vertex 1.66667 10.00000 8.33333
    vertex 3.33333 10.00000 8.33333
    vertex 3.33333 8.33333 8.33333
  end loop
  end facet
facet normal 0 0 -1
  outer loop
    vertex 3.33333 8.33333 8.33333
    vertex 1.66667 8.33333 8.33333
    vertex 1.66667 10.00000 8.33333
  end loop
  end facet
facet normal 0 0 1
  outer loop
    vertex 1.66667 8.33333 10.00000
    vertex 3.33333 8.33333 10.00000
    vertex 3.33333 10.00000 10.00000
  end loop
  end facet
facet normal 0 0 1
  outer loop
    vertex 3.33333 10.00000 10.00000
    vertex 1.66667 10.00000 10.00000
    vertex 1.66667 8.33333 10.00000
  end loop
  end facet
facet normal 0 1 0
  outer loop
    vertex 1.66667 10.00000 10.00000
    vertex 3.33333 10.00000 10.00000
    vertex 3.33333 10.00000 8.33333
  end loop
  end facet
facet normal 0 1 0
  outer loop
    vertex 3.33333 10.00000 8.33333
    vertex 1.66667 10.00000 8.33333
    vertex 1.66667 10.00000 10.00000
  end loop
  end facet
facet normal 0 0 -1
  outer loop
    vertex 3.33333 1.66667 8.33333
    vertex 5.00000 1.66667 8.33333
    vertex 5.00000 0.00000 8.33333
  end loop
  end facet
facet normal 0 0 -1
  outer loop
    vertex 5.00000 0.00000 8.33333
    vertex 3.33333 0.00000 8.33333
    vertex 3.33333 1.66667 8.33333
  end loop
  end facet
facet normal 0 0 1
  outer loop
    vertex 3.33333 0.00000 10.00000
    vertex 5.00000 0.00000 10.00000
    vertex 5.00000 1.66667 10.00000
  end loop
  end facet
facet normal 0 0 1
  outer loop
    vertex 5.00000 1.66667 10.00000
    vertex 3.33333 1.66667 10.00000
    vertex 3.33333 0.00000 10.00000
  end loop
  end facet
facet normal 0 -1 0
  outer loop
    vertex 3.33333 0.00000 8.33333
    vertex 5.00000 0.00000 8.33333
    vertex 5.00000 0.00000 10.00000
  end loop
  end facet
facet normal 0 -1 0
  outer loop
    vertex 5.00000 0.00000 10.00000
    vertex 3.33333 0.00000 10.00000
    vertex 3.33333 0.00000 8.33333
  end loop
  end facet
facet normal 0 0 -1
  outer loop
    vertex 3.33333 3.33333 8.33333
    vertex 5.00000 3.33333 8.33333
    vertex 5.00000 1.66667 8.33333
  end loop
  end facet
facet normal 0 0 -1
  outer loop
    vertex 5.00000 1.66667 8.33333
    vertex 3.33333 1.66667 8.33333
    vertex 3.33333 3.33333 8.33333
  end loop
  end facet
facet normal 0 0 1
  outer loop
    vertex 3.33333 1.66667 10.00000
    vertex 5.00000 1.66667 10.00000
    vertex 5.00000 3.33333 10.00000
  end loop
  end facet
facet normal 0 0 1
  outer loop
    vertex 5.00000 3.33333 10.00000
    vertex 3.33333 3.33333 10.00000
    vertex 3.33333 1.66667 10.00000
  end loop
  end facet
facet normal 0 0 -1
  outer loop
    vertex 3.33333 5.00000 8.33333
    vertex 5.00000 5.00000 8.33333
    vertex 5.00000 3.33333 8.33333
  end loop
  end facet
facet normal 0 0 -1
  outer loop
    vertex 5.00000 3.33333 8.33333
    vertex 3.33333 3.33333 8.33333
    vertex 3.33333 5.00000 8.33333
  end loop
  end facet
facet normal 0 0 1
  outer loop
    vertex 3.33333 3.33333 10.00000
    vertex 5.00000 3.33333 10.00000
    vertex 5.00000 5.00000 10.00000
  end loop
  end facet
facet normal 0 0 1
  outer loop
    vertex 5.00000 5.00000 10.00000
    vertex 3.33333 5.00000 10.00000
    vertex 3.33333 3.33333 10.00000
  end loop
  end facet
facet normal 0 0 -1
  outer loop
    vertex 3.33333 6.66667 8.33333
    vertex 5.00000 6.66667 8.33333
    vertex 5.00000 5.00000 8.33333
  end loop
  end facet
facet normal 0 0 -1
  outer loop
    vertex 5.00000 5.00000 8.33333
    vertex 3.33333 5.00000 8.33333
    vertex 3.33333 6.66667 8.33333
  end loop
  end facet
facet normal 0 0 1
  outer loop
    vertex 3.33333 5.00000 10.00000
    vertex 5.00000 5.00000 10.00000
    vertex 5.00000 6.66667 10.00000
  end loop
  end facet
facet normal 0 0 1
  outer loop
    vertex 5.00000 6.66667 10.00000
    vertex 3.33333 6.66667 10.00000
    vertex 3.33333 5.00000 10.00000
  end loop
  end facet
facet normal 0 0 -1
  outer loop
    vertex 3.33333 8.33333 8.33333
    vertex 5.00000 8.33333 8.33333
    vertex 5.00000 6.66667 8.33333
  end loop
  end facet
facet normal 0 0 -1
  outer loop
    vertex 5.00000 6.66667 8.33333
    vertex 3.33333 6.66667 8.33333
    vertex 3.33333 8.33333 8.33333
  end loop
  end facet
facet normal 0 0 1
  outer loop
    vertex 3.33333 6.66667 10.00000
    vertex 5.00000 6.66667 10.00000
    vertex 5.00000 8.33333 10.00000
  end loop
  end facet
facet normal 0 0 1
  outer loop
    vertex 5.00000 8.33333 10.00000
    vertex 3.33333 8.33333 10.00000
    vertex 3.33333 6.66667 10.00000
  end loop
  end facet
facet normal 0 0 -1
  outer loop
    vertex 3.33333 10.00000 8.33333
    vertex 5.00000 10.00000 8.33333
    vertex 5.00000 8.33333 8.33333
  end loop
  end facet
facet normal 0 0 -1
  outer loop
    vertex 5.00000 8.33333 8.33333
    vertex 3.33333 8.33333 8.33333
    vertex 3.33333 10.00000 8.33333
  end loop
  end facet
facet normal 0 0 1
  outer loop
    vertex 3.33333 8.33333 10.00000
    vertex 5.00000 8.33333 10.00000
    vertex 5.00000 10.00000 10.00000
  end loop
  end facet
facet normal 0 0 1
  outer loop
    vertex 5.00000 10.00000 10.00000
    vertex 3.33333 10.00000 10.00000
    vertex 3.33333 8.33333 10.00000
  end loop
  end facet
facet normal 0 1 0
  outer loop
    vertex 3.33333 10.00000 10.00000
    vertex 5.00000 10.00000 10.00000
    vertex 5.00000 10.00000 8.33333
  end loop
  end facet
facet normal 0 1 0
  outer loop
    vertex 5.00000 10.00000 8.33333
    vertex 3.33333 10.00000 8.33333
    vertex 3.33333 10.00000 10.00000
  end loop
  end facet
facet normal 0 0 -1
  outer loop
    vertex 5.00000 1.66667 8.33333
    vertex 6.66667 1.66667 8.33333
    vertex 6.66667 0.00000 8.33333
  end loop
  end facet
facet normal 0 0 -1
  outer loop
    vertex 6.66667 0.00000 8.33333
    vertex 5.00000 0.00000 8.33333
    vertex 5.00000 1.66667 8.33333
  end loop
  end facet
facet normal 0 0 1
  outer loop
    vertex 5.00000 0.00000 10.00000
    vertex 6.66667 0.00000 10.00000
    vertex 6.66667 1.66667 10.00000
  end loop
  end facet
facet normal 0 0 1
  outer loop
    vertex 6.66667 1.66667 10.00000
    vertex 5.00000 1.66667 10.00000
    vertex 5.00000 0.00000 10.00000
  end loop
  end facet
facet normal 0 -1 0
  outer loop
    vertex 5.00000 0.00000 8.33333
    vertex 6.66667 0.00000 8.33333
    vertex 6.66667 0.00000 10.00000
  end loop
  end facet
facet normal 0 -1 0
  outer loop
    vertex 6.66667 0.00000 10.00000
    vertex 5.00000 0.00000 10.00000
    vertex 5.00000 0.00000 8.33333
  end loop
  end facet
facet normal 0 0 -1
  outer loop
    vertex 5.00000 3.33333 8.33333
    vertex 6.66667 3.33333 8.33333
    vertex 6.66667 1.66667 8.33333
  end loop
  end facet
facet normal 0 0 -1
  outer loop
    vertex 6.66667 1.66667 8.33333
    vertex 5.00000 1.66667 8.33333
    vertex 5.00000 3.33333 8.33333
  end loop
  end facet
facet normal 0 0 1
  outer loop
    vertex 5.00000 1.66667 10.00000
    vertex 6.66667 1.66667 10.00000
    vertex 6.66667 3.33333 10.00000
  end loop
  end facet
facet normal 0 0 1
  outer loop
    vertex 6.66667 3.33333 10.00000
    vertex 5.00000 3.33333 10.00000
    vertex 5.00000 1.66667 10.00000
  end loop
  end facet
facet normal 0 0 -1
  outer loop
    vertex 5.00000 5.00000 8.33333
    vertex 6.66667 5.00000 8.33333
    vertex 6.66667 3.33333 8.33333
  end loop
  end facet
facet normal 0 0 -1
  outer loop
    vertex 6.66667 3.33333 8.33333
    vertex 5.00000 3.33333 8.33333
    vertex 5.00000 5.00000 8.33333
  end loop
  end facet
facet normal 0 0 1
  outer loop
    vertex 5.00000 3.33333 10.00000
    vertex 6.66667 3.33333 10.00000
    vertex 6.66667 5.00000 10.00000
  end loop
  end facet
facet normal 0 0 1
  outer loop
    vertex 6.66667 5.00000 10.00000
    vertex 5.00000 5.00000 10.00000
    vertex 5.00000 3.33333 10.00000
  end loop
  end facet
facet normal 0 0 -1
  outer loop
    vertex 5.00000 6.66667 8.33333
    vertex 6.66667 6.66667 8.33333
    vertex 6.66667 5.00000 8.33333
  end loop
  end facet
facet normal 0 0 -1
  outer loop
    vertex 6.66667 5.00000 8.33333
    vertex 5.00000 5.00000 8.33333
    vertex 5.00000 6.66667 8.33333
  end loop
  end facet
facet normal 0 0 1
  outer loop
    vertex 5.00000 5.00000 10.00000
    vertex 6.66667 5.00000 10.00000
    vertex 6.66667 6.66667 10.00000
  end loop
  end facet
facet normal 0 0 1
  outer loop
    vertex 6.66667 6.66667 10.00000
    vertex 5.00000 6.66667 10.00000
    vertex 5.00000 5.00000 10.00000
  end loop
  end facet
facet normal 0 0 -1
  outer loop
    vertex 5.00000 8.33333 8.33333
    vertex 6.66667 8.33333 8.33333
    vertex 6.66667 6.66667 8.33333
  end loop
  end facet
facet normal 0 0 -1
  outer loop
    vertex 6.66667 6.66667 8.33333
    vertex 5.00000 6.66667 8.33333
    vertex 5.00000 8.33333 8.33333
  end loop
  end facet
facet normal 0 0 1
  outer loop
    vertex 5.00000 6.66667 10.00000
    vertex 6.66667 6.66667 10.00000
    vertex 6.66667 8.33333 10.00000
  end loop
  end facet
facet normal 0 0 1
  outer loop
    vertex 6.66667 8.33333 10.00000
    vertex 5.00000 8.33333 10.00000
    vertex 5.00000 6.66667 10.00000
  end loop
  end facet
facet normal 0 0 -1
  outer loop
    vertex 5.00000 10.00000 8.33333
    vertex 6.66667 10.00000 8.33333
    vertex 6.66667 8.33333 8.33333
  end loop
  end facet
facet normal 0 0 -1
  outer loop
    vertex 6.66667 8.33333 8.33333
    vertex 5.00000 8.33333 8.33333
    vertex 5.00000 10.00000 8.33333
  end loop
  end facet
facet normal 0 0 1
  outer loop
    vertex 5.00000 8.33333 10.00000
    vertex 6.66667 8.33333 10.00000
    vertex 6.66667 10.00000 10.00000
  end loop
  end facet
facet normal 0 0 1
  outer loop
    vertex 6.66667 10.00000 10.00000
    vertex 5.00000 10.00000 10.00000
    vertex 5.00000 8.33333 10.00000
  end loop
  end facet
facet normal 0 1 0
  outer loop
    vertex 5.00000 10.00000 10.00000
    vertex 6.66667 10.00000 10.00000
    vertex 6.66667 10.00000 8.33333
  end loop
  end facet
facet normal 0 1 0
  outer loop
    vertex 6.66667 10.00000 8.33333
    vertex 5.00000 10.00000 8.33333
    vertex 5.00000 10.00000 10.00000
  end loop
  end facet
facet normal 0 0 -1
  outer loop
    vertex 6.66667 1.66667 8.33333
    vertex 8.33333 1.66667 8.33333
    vertex 8.33333 0.00000 8.33333
  end loop
  end facet
facet normal 0 0 -1
  outer loop
    vertex 8.33333 0.00000 8.33333
    vertex 6.66667 0.00000 8.33333
    vertex 6.66667 1.66667 8.33333
  end loop
  end facet
facet normal 0 0 1
  outer loop
    vertex 6.66667 0.00000 10.00000
    vertex 8.33333 0.00000 10.00000
    vertex 8.33333 1.66667 10.00000
  end loop
  end facet
facet normal 0 0 1
  outer loop
    vertex 8.33333 1.66667 10.00000
    vertex 6.66667 1.66667 10.00000
    vertex 6.66667 0.00000 10.00000
  end loop
  end facet
facet normal 0 -1 0
  outer loop
    vertex 6.66667 0.00000 8.33333
    vertex 8.33333 0.00000 8.33333
    vertex 8.33333 0.00000 10.00000
  end loop
  end facet
facet normal 0 -1 0
  outer loop
    vertex 8.33333 0.00000 10.00000
    vertex 6.66667 0.00000 10.00000
    vertex 6.66667 0.00000 8.33333
  end loop
  end facet
facet normal 0 0 -1
  outer loop
    vertex 6.66667 3.33333 8.33333
    vertex 8.33333 3.33333 8.33333
    vertex 8.33333 1.66667 8.33333
  end loop
  end facet
facet normal 0 0 -1
  outer loop
    vertex 8.33333 1.66667 8.33333
    vertex 6.66667 1.66667 8.33333
    vertex 6.66667 3.33333 8.33333
  end loop
  end facet
facet normal 0 0 1
  outer loop
    vertex 6.66667 1.66667 10.00000
    vertex 8.33333 1.66667 10.00000
    vertex 8.33333 3.33333 10.00000
  end loop
  end facet
facet normal 0 0 1
  outer loop
    vertex 8.33333 3.33333 10.00000
    vertex 6.66667 3.33333 10.00000
    vertex 6.66667 1.66667 10.00000
  end loop
  end facet
facet normal 0 0 -1
  outer loop
    vertex 6.66667 5.00000 8.33333
    vertex 8.33333 5.00000 8.33333
    vertex 8.33333 3.33333 8.33333
  end loop
  end facet
facet normal 0 0 -1
  outer loop
    vertex 8.33333 3.33333 8.33333
    vertex 6.66667 3.33333 8.33333
    vertex 6.66667 5.00000 8.33333
  end loop
  end facet
facet normal 0 0 1
  outer loop
    vertex 6.66667 3.33333 10.00000
    vertex 8.33333 3.33333 10.00000
    vertex 8.33333 5.00000 10.00000
  end loop
  end facet
facet normal 0 0 1
  outer loop
    vertex 8.33333 5.00000 10.00000
    vertex 6.66667 5.00000 10.00000
    vertex 6.66667 3.33333 10.00000
  end loop
  end facet
facet normal 0 0 -1
  outer loop
    vertex 6.66667 6.66667 8.33333
    vertex 8.33333 6.66667 8.33333
    vertex 8.33333 5.00000 8.33333
  end loop
  end facet
facet normal 0 0 -1
  outer loop
    vertex 8.33333 5.00000 8.33333
    vertex 6.66667 5.00000 8.33333
    vertex 6.66667 6.66667 8.33333
  end loop
  end facet
facet normal 0 0 1
  outer loop
    vertex 6.66667 5.00000 10.00000
    vertex 8.33333 5.00000 10.00000
    vertex 8.33333 6.66667 10.00000
  end loop
  end facet
facet normal 0 0 1
  outer loop
    vertex 8.33333 6.66667 10.00000
    vertex 6.66667 6.66667 10.00000
    vertex 6.66667 5.00000 10.00000
  end loop
  end facet
facet normal 0 0 -1
  outer loop
    vertex 6.66667 8.33333 8.33333
    vertex 8.33333 8.33333 8.33333
    vertex 8.33333 6.66667 8.33333
  end loop
  end facet
facet normal 0 0 -1
  outer loop
    vertex 8.33333 6.66667 8.33333
    vertex 6.66667 6.66667 8.33333
    vertex 6.66667 8.33333 8.33333
  end loop
  end facet
facet normal 0 0 1
  outer loop
    vertex 6.66667 6.66667 10.00000
    vertex 8.33333 6.66667 10.00000
    vertex 8.33333 8.33333 10.00000
  end loop
  end facet
facet normal 0 0 1
  outer loop
    vertex 8.33333 8.33333 10.00000
    vertex 6.66667 8.33333 10.00000
    vertex 6.66667 6.66667 10.00000
  end loop
  end facet
facet normal 0 0 -1
  outer loop
    vertex 6.66667 10.00000 8.33333
    vertex 8.33333 10.00000 8.33333
    vertex 8.33333 8.33333 8.33333
  end loop
  end facet
facet normal 0 0 -1
  outer loop
    vertex 8.33333 8.33333 8.33333
    vertex 6.66667 8.33333 8.33333
    vertex 6.66667 10.00000 8.33333
  end loop
  end facet
facet normal 0 0 1
  outer loop
    vertex 6.66667 8.33333 10.00000
    vertex 8.33333 8.33333 10.00000
    vertex 8.33333 10.00000 10.00000
  end loop
  end facet
facet normal 0 0 1
  outer loop
    vertex 8.33333 10.00000 10.00000
    vertex 6.66667 10.00000 10.00000
    vertex 6.66667 8.33333 10.00000
  end loop
  end facet
facet normal 0 1 0
  outer loop
    vertex 6.66667 10.00000 10.00000
    vertex 8.33333 10.00000 10.00000
    vertex 8.33333 10.00000 8.33333
  end loop
  end facet
facet normal 0 1 0
  outer loop
    vertex 8.33333 10.00000 8.33333
    vertex 6.66667 10.00000 8.33333
    vertex 6.66667 10.00000 10.00000
  end loop
  end facet
facet normal 0 0 -1
  outer loop
    vertex 8.33333 1.66667 8.33333
    vertex 10.00000 1.66667 8.33333
    vertex 10.00000 0.00000 8.33333
  end loop
  end facet
facet normal 0 0 -1
  outer loop
    vertex 10.00000 0.00000 8.33333
    vertex 8.33333 0.00000 8.33333
    vertex 8.33333 1.66667 8.33333
  end loop
  end facet
facet normal 0 0 1
  outer loop
    vertex 8.33333 0.00000 10.00000
    vertex 10.00000 0.00000 10.00000
    vertex 10.00000 1.66667 10.00000
  end loop
  end facet
facet normal 0 0 1
  outer loop
    vertex 10.00000 1.66667 10.00000
    vertex 8.33333 1.66667 10.00000
    vertex 8.33333 0.00000 10.00000
  end loop
  end facet
facet normal 1 0 0
  outer loop
    vertex 10.00000 0.00000 8.33333
    vertex 10.00000 1.66667 8.33333
    vertex 10.00000 1.66667 10.00000
  end loop
  end facet
facet normal 1 0 0
  outer loop
    vertex 10.00000 1.66667 10.00000
    vertex 10.00000 0.00000 10.00000
    vertex 10.00000 0.00000 8.33333
  end loop
  end facet
facet normal 0 -1 0
  outer loop
    vertex 8.33333 0.00000 8.33333
    vertex 10.00000 0.00000 8.33333
    vertex 10.00000 0.00000 10.00000
  end loop
  end facet
facet normal 0 -1 0
  outer loop
    vertex 10.00000 0.00000 10.00000
    vertex 8.33333 0.00000 10.00000
    vertex 8.33333 0.00000 8.33333
  end loop
  end facet
facet normal 0 0 -1
  outer loop
    vertex 8.33333 3.33333 8.33333
    vertex 10.00000 3.33333 8.33333
    vertex 10.00000 1.66667 8.33333
  end loop
  end facet
facet normal 0 0 -1
  outer loop
    vertex 10.00000 1.66667 8.33333
    vertex 8.33333 1.66667 8.33333
    vertex 8.33333 3.33333 8.33333
  end loop
  end facet
facet normal 0 0 1
  outer loop
    vertex 8.33333 1.66667 10.00000
    vertex 10.00000 1.66667 10.00000
    vertex 10.00000 3.33333 10.00000
  end loop
  end facet
facet normal 0 0 1
  outer loop
    vertex 10.00000 3.33333 10.00000
    vertex 8.33333 3.33333 10.00000
    vertex 8.33333 1.66667 10.00000
  end loop
  end facet
facet normal 1 0 0
  outer loop
    vertex 10.00000 1.66667 8.33333
    vertex 10.00000 3.33333 8.33333
    vertex 10.00000 3.33333 10.00000
  end loop
  end facet
facet normal 1 0 0
  outer loop
    vertex 10.00000 3.33333 10.00000
    vertex 10.00000 1.66667 10.00000
    vertex 10.00000 1.66667 8.33333
  end loop
  end facet
facet normal 0 0 -1
  outer loop
    vertex 8.33333 5.00000 8.33333
    vertex 10.00000 5.00000 8.33333
    vertex 10.00000 3.33333 8.33333
  end loop
  end facet
facet normal 0 0 -1
  outer loop
    vertex 10.00000 3.33333 8.33333
    vertex 8.33333 3.33333 8.33333
    vertex 8.33333 5.00000 8.33333
  end loop
  end facet
facet normal 0 0 1
  outer loop
    vertex 8.33333 3.33333 10.00000
    vertex 10.00000 3.33333 10.00000
    vertex 10.00000 5.00000 10.00000
  end loop
  end facet
facet normal 0 0 1
  outer loop
    vertex 10.00000 5.00000 10.00000
    vertex 8.33333 5.00000 10.00000
    vertex 8.33333 3.33333 10.00000
  end loop
  end facet
facet normal 1 0 0
  outer loop
    vertex 10.00000 3.33333 8.33333
    vertex 10.00000 5.00000 8.33333
    vertex 10.00000 5.00000 10.00000
  end loop
  end facet
facet normal 1 0 0
  outer loop
    vertex 10.00000 5.00000 10.00000
    vertex 10.00000 3.33333 10.00000
    vertex 10.00000 3.33333 8.33333
  end loop
  end facet
facet normal 0 0 -1
  outer loop
    vertex 8.33333 6.66667 8.33333
    vertex 10.00000 6.66667 8.33333
    vertex 10.00000 5.00000 8.33333
  end loop
  end facet
facet normal 0 0 -1
  outer loop
    vertex 10.00000 5.00000 8.33333
    vertex 8.33333 5.00000 8.33333
    vertex 8.33333 6.66667 8.33333
  end loop
  end facet
facet normal 0 0 1
  outer loop
    vertex 8.33333 5.00000 10.00000
    vertex 10.00000 5.00000 10.00000
    vertex 10.00000 6.66667 10.00000
  end loop
  end facet
facet normal 0 0 1
  outer loop
    vertex 10.00000 6.66667 10.00000
    vertex 8.33333 6.66667 10.00000
    vertex 8.33333 5.00000 10.00000
  end loop
  end facet
facet normal 1 0 0
  outer loop
    vertex 10.00000 5.00000 8.33333
    vertex 10.00000 6.66667 8.33333
    vertex 10.00000 6.66667 10.00000
  end loop
  end facet
facet normal 1 0 0
  outer loop
    vertex 10.00000 6.66667 10.00000
    vertex 10.00000 5.00000 10.00000
    vertex 10.00000 5.00000 8.33333
  end loop
  end facet
facet normal 0 0 -1
  outer loop
    vertex 8.33333 8.33333 8.33333
    vertex 10.00000 8.33333 8.33333
    vertex 10.00000 6.66667 8.33333
  end loop
  end facet
facet normal 0 0 -1
  outer loop
    vertex 10.00000 6.66667 8.33333
    vertex 8.33333 6.66667 8.33333
    vertex 8.33333 8.33333 8.33333
  end loop
  end facet
facet normal 0 0 1
  outer loop
    vertex 8.33333 6.66667 10.00000
    vertex 10.00000 6.66667 10.00000
    vertex 10.00000 8.33333 10.00000
  end loop
  end facet
facet normal 0 0 1
  outer loop
    vertex 10.00000 8.33333 10.00000
    vertex 8.33333 8.33333 10.00000
    vertex 8.33333 6.66667 10.00000
  end loop
  end facet
facet normal 1 0 0
  outer loop
    vertex 10.00000 6.66667 8.33333
    vertex 10.00000 8.33333 8.33333
    vertex 10.00000 8.33333 10.00000
  end loop
  end facet
facet normal 1 0 0
  outer loop
    vertex 10.00000 8.33333 10.00000
    vertex 10.00000 6.66667 10.00000
    vertex 10.00000 6.66667 8.33333
  end loop
  end facet
facet normal 0 0 -1
  outer loop
    vertex 8.33333 10.00000 8.33333
    vertex 10.00000 10.00000 8.33333
    vertex 10.00000 8.33333 8.33333
  end loop
  end facet
facet normal 0 0 -1
  outer loop
    vertex 10.00000 8.33333 8.33333
    vertex 8.33333 8.33333 8.33333
    vertex 8.33333 10.00000 8.33333
  end loop
  end facet
facet normal 0 0 1
  outer loop
    vertex 8.33333 8.33333 10.00000
    vertex 10.00000 8.33333 10.00000
    vertex 10.00000 10.00000 10.00000
  end loop
  end facet
facet normal 0 0 1
  outer loop
    vertex 10.00000 10.00000 10.00000
    vertex 8.33333 10.00000 10.00000
    vertex 8.33333 8.33333 10.00000
  end loop
  end facet
facet normal 1 0 0
  outer loop
    vertex 10.00000 8.33333 8.33333
    vertex 10.00000 10.00000 8.33333
    vertex 10.00000 10.00000 10.00000
  end loop
  end facet
facet normal 1 0 0
  outer loop
    vertex 10.00000 10.00000 10.00000
    vertex 10.00000 8.33333 10.00000
    vertex 10.00000 8.33333 8.33333
  end loop
  end facet
facet normal 0 1 0
  outer loop
    vertex 8.33333 10.00000 10.00000
    vertex 10.00000 10.00000 10.00000
    vertex 10.00000 10.00000 8.33333
  end loop
  end facet
facet normal 0 1 0
  outer loop
    vertex 10.00000 10.00000 8.33333
    vertex 8.33333 10.00000 8.33333
    vertex 8.33333 10.00000 10.00000
  end loop
  end facet
endsolid automata
